<svg version="1.0" xmlns="http://www.w3.org/2000/svg" width="682.667" height="682.667" viewBox="0 0 512 512"><path d="M218.8 1.5c-4.6 1.7-54 36.9-58.4 41.7-4 4.2-5.3 6.8-6.2 12.1l-.8 4.2-22.4.5c-21.8.6-22.7.7-28.4 3.3C90.8 68.7 82.7 77.9 79 89.9c-2 6.2-2 9.9-2 196.1 0 185.2 0 190 1.9 196.1 3.8 12 11.3 20.3 23.9 26.2l6.7 3.2h146c141 0 146.2-.1 151-1.9 12.7-4.8 22.7-15.2 26.5-27.3 2-6.4 2-8.8 2-196.3 0-186.2 0-189.9-2-196.1-3.7-12-11.7-21.1-23.6-26.6-5.8-2.7-6.4-2.8-28.4-3.3l-22.4-.5-.8-4.2c-.9-5.3-2.2-7.9-6.2-12.1-4.7-5.1-54-40.1-58.7-41.7-5.8-2.1-68.5-2-74.1 0zm69.5 16.7c3.4 1.7 46.9 32.8 50 35.6 2.5 2.4 2.7 3.1 2.7 10.1-.1 7.9-.9 9.9-4.7 11.9-3.1 1.7-157.5 1.7-160.6 0-3.8-2-4.6-4-4.7-11.9 0-7 .2-7.7 2.8-10.1 2.7-2.5 45.9-33.5 49.7-35.6 2.8-1.6 61.8-1.6 64.8 0zM158 82.2c2.4 3.6 5.2 6.1 9 8.2l5.5 3.1h167l5.5-3.1c3.8-2.1 6.6-4.6 9-8.3l3.5-5.2 21.5.3 21.5.3 4.8 2.8c5.4 3.2 10.2 9.2 11.7 14.7.7 2.5.9 68.5.8 192.6-.3 179.5-.4 189.1-2.1 192.5-2.4 4.7-7.1 9.5-12.1 12.2l-4.1 2.2h-287l-4.1-2.2c-5-2.7-9.7-7.5-12.1-12.2-1.7-3.4-1.8-12.8-1.8-194.6v-191l2.8-4.7c1.5-2.6 4.3-5.9 6.2-7.4 6.3-4.8 9.5-5.3 31-5.4h20.1l3.4 5.2z"/><path d="M233.3 45.2c-2.9 3.2-3.4 5.3-2.1 8.8 1.8 5.3 4.6 6 24.8 6 20.2 0 23-.7 24.8-6 1.3-3.5.8-5.6-2.1-8.8-2-2.1-2.6-2.2-22.7-2.2-20.1 0-20.7.1-22.7 2.2zm-104.7 85.1c-4.8 2.7-7.5 6.2-8.6 11.3-1.2 5.1-1.2 69.7 0 74.8 1.1 4.8 3.6 8.4 8 11.3 3.3 2.3 3.5 2.3 42.2 2.3 43.9 0 43.8 0 48.6-7.3 2.4-3.6 2.7-5.1 3-14.9.2-6 .1-12-.2-13.4-1.7-6.4-9.5-8.6-14.1-3.9-2.3 2.2-2.5 3.1-2.5 12.5v10h-68v-68h44.1l2.4-2.5c1.7-1.6 2.5-3.5 2.5-6s-.8-4.4-2.5-6l-2.4-2.5h-24.3c-23.3 0-24.5.1-28.2 2.3z"/><path d="M204.9 147.2c-12.4 10.6-25.1 21.5-28.2 24.2l-5.8 4.9-7.4-7.3c-6.9-6.7-7.8-7.2-10.8-6.6-3.6.7-7.7 4.7-7.7 7.7 0 3.6 2.7 7.3 12.3 16.6 8.3 8.2 9.8 9.3 13 9.3 2.4 0 4.6-.9 6.9-2.7 11-9.1 53.1-45.3 57.1-49.2 3.8-3.6 4.7-5.2 4.7-7.9 0-4.5-3.8-8.2-8.3-8.2-3 0-6.2 2.4-25.8 19.2zm79.3-7.9c-3.1 3.3-2.9 8.7.4 11.8l2.6 2.4h92l2.4-2.8c3.1-3.7 3.1-8.1-.1-11.2l-2.4-2.5h-92.8l-2.1 2.3zm.4 33.8c-5 3.9-2.8 12.8 3.6 14.4 1.3.3 22.3.4 46.6.3l44.4-.3 2.4-2.8c3.1-3.7 3.1-8.1-.1-11.2l-2.4-2.5h-45.9c-45 0-46 0-48.6 2.1zm-.1 34.4c-4.1 4-3.3 10.5 1.6 13 4.1 2.2 46.7 2.2 50.8 0 4.9-2.5 5.7-9 1.6-13l-2.4-2.5h-49.2l-2.4 2.5zm-152.1 40.6c-6.1 1.4-11 6.8-12.4 13.5-.7 3.4-1 17.5-.8 40.7l.3 35.4 2.8 4.2c5.3 7.9 5.9 8.1 48 8.1 30.9 0 37.4-.2 40.4-1.5 8.9-3.7 11.2-8.8 11.3-24.3 0-11.2 0-11.4-2.9-14.3-3.3-3.2-5.8-3.6-10-1.4-3.8 1.9-4.1 3-4.1 14.6v9.9h-68v-67.9l21.9-.3c21.6-.3 22-.3 24.5-2.7 3.6-3.4 3.6-8.8 0-12.2-2.5-2.4-2.8-2.4-24.7-2.6-12.2-.1-24.1.3-26.3.8z"/><path d="M227.8 247.8c-.9.4-13.5 10.8-27.9 23.2-14.4 12.4-26.9 22.9-27.6 23.3-1 .6-3.4-1-8.3-5.7-5.7-5.5-7.4-6.6-10.2-6.6-3.7.1-5.9 1.4-7.6 4.7-2.4 4.5-1.5 6.3 9.4 17.4 11.7 11.8 14.5 13.3 19.2 10.3 3.6-2.3 57.9-48.8 61.5-52.5 1.7-1.8 2.7-4 2.7-5.9 0-5.3-6.6-10.1-11.2-8.2zm56.7 10.7c-1.7 1.6-2.5 3.5-2.5 6s.8 4.4 2.5 6l2.4 2.5h45c30.9 0 45.8-.3 47.4-1.1 5.2-2.4 6-8.7 1.8-13l-2.9-2.9h-91.3l-2.4 2.5zm2 32.7c-5.2 2.8-6.2 9.2-2 13.3l2.4 2.5h45.5c25 0 46.2-.3 47.1-.6 1.9-.8 4.5-5.5 4.5-8.4 0-1.2-1.3-3.5-2.9-5.1l-2.9-2.9h-44.9c-30.5.1-45.4.4-46.8 1.2zm0 34c-3.2 1.7-4.5 3.9-4.5 7.9 0 2.9.6 4.2 2.6 5.8 2.5 2 3.9 2.1 27.1 2.1h24.4l2.4-2.5c4.2-4.1 3.1-10.5-2.2-13.3-2.9-1.6-47-1.6-49.8 0zm-157 43.4c-4 2.1-6.4 4.3-8.4 7.9-1.4 2.6-1.6 7.7-1.9 37-.2 18.7-.1 36.3.3 39.2.7 6 3.6 10.8 8.4 14 3.4 2.3 3.5 2.3 42.5 2.3 38.6 0 39.1-.1 43-2.3 2.5-1.4 4.8-3.9 6.3-6.7 2.2-4.2 2.4-5.4 2.1-16.8-.3-11.6-.4-12.5-2.7-14.3-3.6-2.9-9.4-2.5-12 .7-1.8 2.3-2.1 4.1-2.1 12.5v9.9h-68v-68h44.1l2.4-2.5c1.7-1.6 2.5-3.5 2.5-6s-.8-4.4-2.5-6l-2.4-2.5h-24.3c-20.1 0-24.8.3-27.3 1.6z"/><path d="M225.5 368.9c-1.6 1-14.5 11.8-28.5 23.9l-25.5 21.9-6.7-6.3c-3.8-3.5-7.9-6.6-9.2-7-3.2-.8-7.7 1.4-9.5 4.7-2.5 4.5-.7 7.7 10.3 18.6 9.2 9.2 10.8 10.3 13.9 10.3 2.4 0 4.6-.9 6.9-2.8 11.2-9.3 58.6-50.2 59.8-51.6.7-1 1.4-3.3 1.4-5.2 0-6.6-7.2-10.2-12.9-6.5zm63 6.8c-6.5 1.6-8.8 9.8-3.9 14.4l2.6 2.4 44.1.3c40.6.2 44.5.1 47.7-1.5 2-1.1 3.9-3 4.4-4.6 1.4-4-.3-7.9-4.4-9.9-3.2-1.6-7.4-1.8-46-1.7-23.4.1-43.4.3-44.5.6zm-4.3 36.6c-3.1 3.3-2.9 8.7.4 11.8l2.6 2.4h92l2.4-2.8c3.1-3.7 3.1-8.1-.1-11.2l-2.4-2.5h-92.8l-2.1 2.3zm.3 34.2c-4.1 4-3.3 10.5 1.6 13 3.6 1.9 46.7 2.2 50.2.3 5.3-2.8 6.4-9.2 2.2-13.3l-2.4-2.5h-49.2l-2.4 2.5z"/></svg>