<svg version="1.0" xmlns="http://www.w3.org/2000/svg" width="682.667" height="682.667" viewBox="0 0 512 512"><path d="M245 1.6c-7.3 2-11.4 4.5-25.5 16-13.1 10.6-18 13.3-23.9 13.4-2.1 0-11.1-1.4-20-3.1-20.6-4-27.5-3.7-38.2 1.5-11.5 5.7-15.5 10.9-24.9 32.1-9.9 22.4-10.7 23.3-26.4 28.1-23 7-27 8.6-32.4 12.4-6.4 4.6-13 13.8-15.2 21.3-1.8 6-1.9 12.8-.4 32.2 1.5 20.5 1.8 19.9-15.6 37.5-7.8 8-15.4 16.5-16.8 19-5.9 10.2-7.2 24.7-3.1 35 1 2.5 5.3 10.3 9.7 17.5 9.9 16.1 11.7 19.9 11.7 25.2 0 2.4-2.4 11.8-5.6 21.9-5.5 17.1-5.6 17.9-5.2 26.9.3 7.9.8 10.1 3.6 15.8 4.6 9.4 10.1 14.3 26.9 24.3 15.6 9.2 20.4 13.3 22.2 18.7.6 1.8 2.4 10.8 4 20 4.3 25 9.9 34.6 24.4 41.7 7.7 3.7 13.2 4.7 32.2 5.5 21.2.9 22.1 1.4 35.8 19.3 5.8 7.6 12.3 15.4 14.6 17.4 5.6 5.2 12.8 8.6 21 10 10.4 1.8 17.3.1 35.4-8.5 14.7-6.9 15.5-7.2 22.7-7.2 7.2 0 8.1.3 22 6.9 20.7 9.8 28 11.3 39.5 8.2 12.3-3.2 17.8-7.8 32.2-26.8 13.6-17.9 14.5-18.4 36.3-19.3 8.5-.4 17.7-1.1 20.5-1.6 7.7-1.4 16.5-6 21.9-11.5 7.4-7.4 10.3-14.6 13.7-34.1 1.6-9.2 3.4-18.2 4-20 1.8-5.4 6.6-9.5 22.3-18.8 16.9-9.9 22-14.6 26.8-24.3 3.1-6.3 3.3-7.2 3.3-17.7-.1-10.5-.3-11.6-5.3-26.6-7.5-22.6-7.5-22.5 6.5-45.4 4.4-7.2 8.7-15 9.7-17.5 4.1-10.3 2.8-24.8-3.1-35-1.4-2.5-9-11-16.8-19-11.1-11.3-14.5-15.4-15.4-18.5-.9-3-.8-8.8.1-23.1 1.3-21.1.8-26-3.8-35.2-2.9-5.8-10-13.3-15.8-16.7-2.2-1.3-11.7-4.7-21.1-7.5-9.3-2.9-18.7-6.4-20.8-7.8-4-2.7-7.4-8.9-16.6-30.3-5.5-12.6-11.6-19.5-21.5-24.4-10.7-5.3-17.6-5.6-38.2-1.6-8.9 1.7-17.9 3.1-20 3.1-5.9-.1-10.8-2.8-23.9-13.4-14.2-11.6-18.1-14-26-16-7.3-2-14.3-1.9-21.5 0zm20.1 20.7c2.4 1.2 10.3 7 17.4 12.8 7.2 5.8 15.4 11.5 18.4 12.8 8.9 3.8 17.9 3.9 36.3.2 17.5-3.4 20.3-3.6 26.1-1.9 6.5 1.9 10.8 7 15.6 18.3 8.6 20 12.2 26.7 17.1 31.6 6.3 6.3 11.5 8.8 30 14.4 18.1 5.5 19.7 6.2 23.8 10.9 5.3 6 5.7 9.2 4.3 30.9-1.9 29.6-.6 33.3 20.1 54 7.6 7.7 14.6 15.3 15.5 17 1.1 2.1 1.7 5.6 1.8 9.8 0 6.5-.1 6.7-8 19.5-13.1 21.3-14.7 24.8-15.2 35.1-.5 8.5-.3 9.4 5.1 26.5 9.5 30.1 8.4 33.3-16.9 48.1-16 9.3-23.7 16.2-27.8 24.8-1.8 3.8-3.6 11.4-5.7 23.3-3.6 20.4-3.8 21.2-7.9 25.9-5.4 6-8.5 6.9-30.1 8.2-29.6 1.9-33.3 3.8-51 27-11.6 15.1-14 17.4-20.4 19.5-6.1 2-11.5.7-26.5-6.3-19.7-9.3-22.3-10-33.4-9.5-9 .4-9.5.6-26.1 8.3-17.9 8.2-22.9 9.5-29.2 7.5-6.4-2.1-8.8-4.4-20.4-19.5-17.4-22.7-21.9-25.3-48-26.7-9.1-.5-18.8-1.3-21.6-1.9-5.9-1.1-12.2-5.9-14.7-11.1-.8-1.8-2.9-11-4.6-20.3-3.3-19.1-4.7-23.6-9-29.9-4.4-6.4-9.3-10.2-24.3-19-14.8-8.8-18.1-11.4-20.9-16.8-3.2-6.2-2.5-12.3 3.3-30.2 4.9-15.1 5.3-16.8 5.3-26.2 0-9.5-.2-10.4-3.5-17-2-3.8-7-12.5-11.3-19.4-6.2-10.1-7.9-13.6-8.4-17.8-1-8.9 1-12.2 17-28.4 21.2-21.3 22.5-24.8 20.6-54.5-1.4-21.7-1-24.9 4.3-30.9 4.1-4.6 5.6-5.3 23.7-10.8 28.7-8.8 32.1-11.7 44.1-39.2 3.7-8.3 7.7-16.6 9-18.4 2.8-3.9 11.1-8 16.3-8 2.1 0 10.8 1.4 19.5 3.1 18.4 3.7 27.4 3.6 36.3-.2 3-1.3 11.2-7 18.4-12.8C244.8 22.7 249.6 20 256 20c2.9 0 6.3.9 9.1 2.3z"/><path d="M231.5 67.6c-20.2 2.7-40 8.7-59.1 17.9-12.8 6.2-17 9.4-17.9 13.6-1.3 6 3.5 11.9 9.7 11.9 1.3 0 8.1-2.9 15.1-6.5 47.5-24 101.3-24.7 149.3-2 47.1 22.3 81.5 65 93.2 116 6.9 30 4.9 65.5-5.4 93.2-2 5.4-3.9 11.7-4.1 14-.4 3.7-.1 4.6 2.5 7.3 5.6 5.5 12.8 3.6 16.6-4.4 9.5-20.3 15.4-52.7 14.3-79.1-2.7-64.3-35.9-121.6-89.8-155-36.5-22.7-82.5-32.6-124.4-26.9zm-109.6 54.3c-4.9 4.9-3.5 12.6 2.8 15.6 8.5 4.1 17.2-5 12.9-13.3-3.2-6.1-10.8-7.2-15.7-2.3z"/><path d="M183.3 149.5c-12.6 3.9-23.4 14.7-27.3 27.3-5.5 17.8 1.2 37.1 16.3 47.3 25.9 17.2 60.2 2 64.9-28.8.9-5.7.8-8.2-.6-14.5-3.3-14.9-13.6-26.2-28-31.1-6-2-19.2-2.2-25.3-.2zm22.8 20.8c8.4 4.4 13.4 15.4 11 24.4-4.5 16.8-25.4 22.2-37.3 9.6-10-10.5-6.7-27.6 6.7-34.6 4.7-2.5 14.3-2.2 19.6.6zm80 5.4c-1.6 1.6-23.9 40-49.5 85.5-36.8 65.3-46.6 83.4-46.6 86.2 0 4.9 3.4 8.6 8.6 9.3 3.6.5 4.5.1 7.2-2.3 1.7-1.7 22.7-37.8 49.6-85.5 51-90.5 49.5-87.2 43.7-93-4-3.9-8.9-4-13-.2z"/><path d="M85.3 177.2c-2.8 1.3-6.1 8.2-10.1 20.8C59 249 64.8 304.1 91.1 350c46.8 81.9 146.3 117.1 234.2 82.8 11.6-4.5 24.8-11.1 28.8-14.5 7-6 2.9-17.3-6.3-17.3-1.3 0-8 2.8-14.8 6.3-14.6 7.4-30 12.7-46 15.8-15.3 3.1-44.2 3.3-59.5.5C153.3 410 98 352.8 87.5 278.7c-3.7-25.6-1-51.7 8.1-78.3 2.4-7.2 4.4-14.3 4.4-15.8 0-4-4.9-8.6-9.2-8.5-1.8 0-4.3.5-5.5 1.1z"/><path d="M309.8 281.1c-8.4 1.2-16.4 5.4-23.1 12-10.4 10.5-14.4 24-11.3 38.1 3 13.3 10.9 23.2 23.6 29.2 6.1 2.9 7.3 3.1 17.5 3.1 9.8 0 11.6-.3 16.8-2.7 6.6-3.1 15.6-11.2 19.1-17.2 11.9-20.4 4-47.8-16.9-58.3-8.3-4.2-16.4-5.5-25.7-4.2zm14.8 21c1.2.4 3.9 2.3 5.9 4.1 9.9 8.6 10 23.9.2 32.5-4.7 4.1-9.6 5.6-16.7 5.1-20-1.4-26.8-27.6-10.3-39.2 6.2-4.3 13.7-5.2 20.9-2.5zm55.4 71.6c-5.6 2-8.3 8.9-5.6 14.1 2 3.8 4.4 5.2 9.1 5.2 4.8 0 9.5-4.4 9.5-9 0-7.4-6.6-12.6-13-10.3z"/></svg>