<svg width="23" height="28" fill="none" xmlns="http://www.w3.org/2000/svg"><path d="M11.402 14.905h.18c1.64-.028 2.967-.618 3.947-1.747 2.156-2.486 1.798-6.748 1.758-7.155-.14-3.053-1.55-4.514-2.715-5.195C13.704.298 12.69.023 11.559 0h-.095c-.622 0-1.842.103-3.012.785-1.176.681-2.61 2.142-2.75 5.218-.039.407-.397 4.669 1.758 7.155.975 1.129 2.302 1.719 3.942 1.747ZM7.197 6.147c0-.018.006-.035.006-.046.185-4.108 3.035-4.549 4.255-4.549h.068c1.511.035 4.082.665 4.255 4.549 0 .017 0 .034.006.046.005.04.397 3.935-1.383 5.986-.706.813-1.646 1.214-2.884 1.226h-.056c-1.232-.012-2.178-.413-2.878-1.226-1.775-2.04-1.394-5.952-1.389-5.986Z" fill="#fff"/><path d="M22.998 21.974v-.017c0-.046-.005-.092-.005-.143-.034-1.135-.107-3.787-2.537-4.635l-.056-.017c-2.525-.659-4.625-2.148-4.647-2.165a.744.744 0 0 0-1.053.189c-.24.35-.157.83.185 1.077.095.069 2.324 1.655 5.112 2.389 1.305.475 1.45 1.901 1.49 3.207 0 .052 0 .098.005.144.006.515-.028 1.311-.117 1.77-.907.527-4.463 2.348-9.872 2.348-5.387 0-8.965-1.827-9.878-2.354-.09-.458-.128-1.255-.117-1.77 0-.046.005-.092.005-.143.04-1.306.185-2.733 1.49-3.208 2.788-.733 5.017-2.326 5.112-2.389A.784.784 0 0 0 8.3 15.18a.744.744 0 0 0-1.053-.189c-.022.017-2.11 1.507-4.647 2.166a.655.655 0 0 0-.056.017C.114 18.027.04 20.679.007 21.808a1.176 1.176 0 0 1-.005.16c-.006.298-.012 1.828.285 2.595a.731.731 0 0 0 .291.361c.168.115 4.194 2.738 10.93 2.738s10.762-2.629 10.93-2.738a.763.763 0 0 0 .292-.36c.28-.763.274-2.292.268-2.59Z" fill="#fff"/></svg>