<svg version="1.0" xmlns="http://www.w3.org/2000/svg" width="682.667" height="682.667" viewBox="0 0 512 512"><path d="M44.5 95.4c-4.1 1.9-8.3 6.6-9.5 10.7-1.5 5.2-1.3 150.4.2 153.2 2.7 5.2 8.3 6.2 12.3 2.2l2.5-2.4V110h309v73.6c0 54 .3 74.1 1.2 75.7 2.7 5.2 8.3 6.2 12.3 2.2 2.1-2 2.5-3.4 2.5-8.5v-6h49.3c29.9 0 50.6.4 52.8 1 5.1 1.4 9.8 4.8 13.6 9.8 5.4 7.1 5.2 7.2-10.2 7.2-13.1 0-13.7.1-16 2.5-2.4 2.3-2.5 3-2.5 14.6 0 15.4 1.1 19 7.5 25.4 5.8 5.9 10.2 7.5 19.9 7.5h6.6v36h-20.6l-3.1-6.3c-18.5-37.3-72.2-37.2-90.6.1-2.1 4.1-3.7 6.2-4.7 6-1.3-.3-1.6-4.8-2-32.5-.5-35.4-.4-34.6-6.7-35.9-2.7-.5-3.7-.1-6.3 2.4l-3 3V351H193.1l-2.1-4.7c-8.8-20-31.2-32.4-53.2-29.3-15.8 2.2-31.7 13.7-38.3 27.8l-3 6.2-23-.2-23-.3v-18l19.2-.3 19.2-.2 2-2.7c2.8-3.4 2.6-6.6-.3-10l-2.4-2.8H4.8l-2.4 2.8c-2.9 3.4-3.1 6.6-.3 10.1l2 2.6H34v10.2c0 7.8.5 11.3 1.9 14.3 4.3 9.4 7.8 10.4 35.6 10.5h22l1.3 7.7c6.7 42.2 59 57.8 87.6 26.2 5.7-6.3 11.4-17.8 12.2-24.6.3-2.6.7-5.8 1-7.1l.4-2.2h179.6l1.5 8.2c2.1 10.8 5.8 18.5 12.5 25.8 11 11.8 21.3 16.3 37.4 16.3 16.1 0 26.4-4.5 37.4-16.3 6.8-7.5 10.4-14.6 12.4-25.4l1.6-8.5 14.4-.3 14.4-.3 2.4-2.9 2.5-2.8-.3-48.7c-.3-47.3-.4-48.7-2.5-53.9-4.9-12-16.2-22.5-27.4-25.3-3.4-.9-5.4-2-6-3.4-.5-1.1-3.6-12.9-6.9-26.3l-6-24.3 3.1-2.6 3.1-2.7-.4-10.5c-.3-9.1-.8-11.3-3.1-15.9-3.3-6.2-9.1-12.4-14.4-15-7.1-3.6-13.5-4.2-45.3-4.2h-30.8l-.4-11.8c-.3-10.5-.6-12.1-2.7-15.1-1.3-1.8-4.2-4.2-6.5-5.2-3.9-1.8-10.1-1.9-161.1-1.8-129 0-157.5.2-160 1.3zm399.2 50.8c4.3 2.4 8.3 7.8 9 12.2l.6 3.6H375v-18.1l32.8.3c28.9.3 33.1.5 35.9 2zm9.1 58c3.4 13.9 6.2 25.6 6.2 26 0 .5-18.9.8-42 .8h-42v-52h71.5l6.3 25.2zM496 290v9h-6.4c-5.5 0-6.7-.3-9-2.6-2.3-2.3-2.6-3.5-2.6-9V281h18v9zm-343.5 43.5c8.7 1.4 18.8 9.4 23.4 18.3 4.5 8.7 4.5 21.6 0 30.3-13.2 26.1-49.3 26.1-62.1.1-3-6-3.3-7.5-3.3-15.2.1-7.2.5-9.4 2.8-14.2 4.9-10.1 15.1-18 25.6-19.8 4.6-.8 6-.7 13.6.5zm280-.4c15.4 2.8 27.1 15.1 29 30.4 1.3 10.4-4.3 24-12.5 30.5-20.2 16-49.2 6.1-55.6-18.9-4.8-18.9 8.3-38.7 27.8-42 2.9-.5 5.3-.9 5.4-1 0 0 2.7.4 5.9 1z"/><path d="M136.2 352.9c-12.2 7.7-9.5 25.9 4.6 30.2 8 2.4 18.3-3.7 19.8-11.7 2.1-11.5-3.9-19.5-15.1-20.2-4.7-.2-6.7.1-9.3 1.7zm282.9-.2c-9.9 4.9-11.3 20.3-2.5 27.2 6.9 5.4 15.8 4.9 22-1.3 5.7-5.7 6.4-14.6 1.5-21.4-4.1-5.9-13.9-8-21-4.5zm-186.3-145L196 244.5l-19.3-19.2c-12.2-12.2-20.2-19.4-22-19.9-5.6-1.3-10.9 5.2-8.7 10.6.6 1.5 11.4 12.9 23.9 25.4C190.6 262 193 264 196.1 264c3.1 0 6.5-3.1 44.1-40.8 37.2-37.1 40.8-41 40.8-44 0-4.4-3.8-8.2-8.1-8.2-3 0-6.9 3.6-40.1 36.7zM19.9 284.9c-3.6 3.6-3.7 7.3-.4 10.6l2.4 2.5h54c29.7 0 54.7-.3 55.6-.6 1.8-.7 4.5-5.5 4.5-7.9 0-.9-1.3-3-2.9-4.6l-2.9-2.9H22.8l-2.9 2.9zM210.3 317c-3.4 1.4-5.6 5.4-4.8 9 1.4 6.2-1.3 6 68.1 6h63.3l2-2.6c2.8-3.5 2.6-6.7-.3-10.1l-2.4-2.8-61.9-.2c-34.5-.1-62.8.2-64 .7z"/></svg>