<svg version="1.0" xmlns="http://www.w3.org/2000/svg" width="682.667" height="682.667" viewBox="0 0 512 512"><path d="M7.8 33.1C3.5 35.3 0 41.2 0 46c0 5 3.5 10.7 8 13 3.7 1.9 5.8 2 36.7 2h32.9l36.1 126.6 36.2 126.6-2.9 5.8c-5 9.9-7.2 17.7-7.2 26 0 20.8 13.5 38.2 33.7 43.5 4.3 1.1 11.5 1.5 26.5 1.6 18.5.1 20 .2 15.5 1.3-8.4 2.1-14.7 5.7-21.1 12.1-17.7 17.6-17.7 45.3.1 63 25.8 25.9 69.5 11.8 75.7-24.4 2.4-14.1-2.2-28.1-12.7-38.7-6.3-6.3-14.3-10.9-21.8-12.4-2.4-.4 26.2-.8 65.8-.8 58 0 69.1.2 65 1.2-8.4 2.1-14.7 5.7-21.1 12.1-17.7 17.6-17.7 45.4 0 63 26 25.9 69.6 11.8 75.8-24.4 3.9-22.7-11.1-45.2-33.7-50.7-4.3-1.1-1.1-1.2 23.8-1.3 26.8-.1 29.1-.2 32.7-2.1 4.5-2.3 8-8 8-13s-3.5-10.7-8-13c-3.9-2-5.6-2-133.2-2-121.1 0-129.5-.1-132.8-1.8-8.1-4-10.1-12.8-5.3-22.7l2.7-5.5h132.3c131.2 0 132.4 0 136.4-2 2.8-1.5 4.6-3.3 5.9-6.3 2.7-5.6 62-213.9 62-217.4 0-4.1-4-10.3-8-12.4-3.3-1.8-10.4-1.9-195.1-1.9H117.3l-6.7-23.8c-8.3-28.9-9.3-31.4-15-34.1-4.1-2-5.8-2.1-44.2-2.1-37.7.1-40.1.2-43.6 2.1zm468.8 89.6c-.3 1-11.8 41.5-25.7 90L425.7 301H177.3l-25.2-88.3c-13.9-48.5-25.4-89-25.7-90-.5-1.6 8.3-1.7 175.1-1.7 166.8 0 175.6.1 175.1 1.7zM233 423c4.5 2.3 8 8 8 13.1 0 7.4-7.6 14.9-15.1 14.9-4.6 0-10.8-3.9-13-8.2-3.7-7.2-1.4-15.1 5.7-19.4 4.8-2.9 9.2-3 14.4-.4zm151 0c4.5 2.3 8 8 8 13.1 0 7.4-7.6 14.9-15.1 14.9-4.6 0-10.8-3.9-13-8.2-3.7-7.2-1.4-15.1 5.7-19.4 4.8-2.9 9.2-3 14.4-.4z"/></svg>