<svg width="190" height="9" fill="none" xmlns="http://www.w3.org/2000/svg"><path d="M.492 1.612a3.8 3.8 0 0 1 .487-.255 3.41 3.41 0 0 1 .563-.187c.2-.048.401-.072.605-.074.283 0 .531.049.743.145.213.097.377.238.496.424.117.188.178.416.18.686a1.198 1.198 0 0 1-.145.57 1.462 1.462 0 0 1-.397.46 1.901 1.901 0 0 1-.592.311 2.38 2.38 0 0 1-.731.114h-.458v.774h.47c.203 0 .406.014.61.045.204.03.398.08.582.15a1.8 1.8 0 0 1 .489.282c.143.117.256.262.338.434.084.172.125.378.127.614 0 .291-.07.55-.209.774-.14.227-.344.403-.612.532-.27.127-.596.193-.986.196a3.424 3.424 0 0 1-.656-.071A4.096 4.096 0 0 1 .78 7.36a3.48 3.48 0 0 1-.51-.235L0 7.924c.308.18.64.312.993.395a4.632 4.632 0 0 0 1.924.038c.28-.055.54-.139.782-.254a2.37 2.37 0 0 0 .643-.444c.186-.182.33-.396.436-.649a2.27 2.27 0 0 0 .16-.87 1.974 1.974 0 0 0-.262-.993 1.895 1.895 0 0 0-.684-.676 2.495 2.495 0 0 0-.989-.314v-.022c.309-.073.584-.2.828-.38.245-.18.441-.403.583-.67a1.89 1.89 0 0 0 .22-.886c-.004-.41-.102-.757-.298-1.045a1.863 1.863 0 0 0-.813-.66c-.348-.153-.75-.23-1.212-.23a3.996 3.996 0 0 0-1.168.165C.8.539.493.68.223.86l.27.751ZM6.85.403v3.333c.003.318-.004.647-.02.983-.013.336-.042.66-.087.975a4.263 4.263 0 0 1-.21.853 1.667 1.667 0 0 1-.375.614 1.623 1.623 0 0 1-.833.422l.13.821c.154-.001.304-.02.455-.056a2.56 2.56 0 0 0 .764-.32c.22-.152.401-.345.548-.578a3.21 3.21 0 0 0 .346-.791c.086-.296.15-.61.191-.941.044-.335.07-.674.083-1.024.013-.35.02-.697.017-1.041V1.26h2.605v7.05h1.032V.403H6.85Zm10.5 5.42.845 2.487h1.09L16.587.403h-1.22L12.67 8.31h1.056l.82-2.486h2.805Zm-2.593-.797.774-2.288c.082-.242.155-.483.218-.725.064-.24.125-.477.181-.706h.024c.056.227.12.462.184.7.064.238.14.485.226.743l.787 2.276h-2.394Zm7.19 3.284h1.033V1.272h2.417V.403h-5.853v.869h2.404V8.31Zm7.52-8.047c-.53.002-1.018.1-1.462.295a3.376 3.376 0 0 0-1.16.839 3.865 3.865 0 0 0-.762 1.31 5.114 5.114 0 0 0-.276 1.71c.002.599.088 1.144.26 1.637.173.491.415.915.73 1.271.315.356.69.63 1.124.823.434.192.913.29 1.44.291a3.83 3.83 0 0 0 1.158-.174 3.335 3.335 0 0 0 1.803-1.354 4 4 0 0 0 .524-1.162c.123-.44.186-.932.188-1.474a5.053 5.053 0 0 0-.253-1.62 3.687 3.687 0 0 0-.717-1.27A3.17 3.17 0 0 0 30.94.558a3.616 3.616 0 0 0-1.473-.295Zm-.035.833a2.198 2.198 0 0 1 1.623.679c.202.21.37.453.503.726.133.274.232.568.299.876.064.311.098.626.098.945 0 .452-.057.876-.169 1.271a3.358 3.358 0 0 1-.49 1.044 2.381 2.381 0 0 1-.796.71c-.315.17-.675.256-1.08.26a2.31 2.31 0 0 1-.885-.17 2.27 2.27 0 0 1-.706-.472 2.759 2.759 0 0 1-.516-.705 3.64 3.64 0 0 1-.319-.88 4.823 4.823 0 0 1-.006-1.993c.067-.322.169-.623.305-.9.135-.277.305-.52.509-.728a2.208 2.208 0 0 1 1.63-.663Zm4.059-.693 2.628 5.35a.731.731 0 0 1 .084.245.443.443 0 0 1-.049.236 4.147 4.147 0 0 1-.237.448 2.638 2.638 0 0 1-.33.438 1.625 1.625 0 0 1-.434.332c-.163.084-.346.13-.548.131a2.43 2.43 0 0 1-.224-.008 1.106 1.106 0 0 1-.163-.027l-.094.833c.065.023.143.041.235.053.094.011.207.017.34.017.35 0 .673-.082.966-.244.293-.164.567-.407.817-.73.141-.183.278-.39.409-.625.133-.235.26-.483.383-.747.124-.264.243-.534.356-.808.115-.275.225-.545.33-.81L39.627.402h-1.08L37.305 3.76l-.259.772c-.078.233-.152.45-.223.647h-.035a39.579 39.579 0 0 0-.563-1.384L34.653.404H33.49Zm12.294 6.84a2.847 2.847 0 0 1-.477.174 4.637 4.637 0 0 1-1.2.154c-.64-.003-1.185-.133-1.635-.39a2.56 2.56 0 0 1-1.032-1.1c-.239-.473-.359-1.036-.36-1.689.001-.52.076-.981.22-1.386.147-.403.357-.745.626-1.023.272-.28.597-.49.974-.635.38-.145.8-.217 1.265-.217.33.002.63.033.897.094.269.06.497.139.686.234l.259-.833c-.09-.049-.221-.1-.391-.154a4.27 4.27 0 0 0-.626-.137 5.88 5.88 0 0 0-.86-.06 4.618 4.618 0 0 0-1.68.299 3.78 3.78 0 0 0-1.304.845 3.76 3.76 0 0 0-.845 1.31 4.676 4.676 0 0 0-.3 1.698c.003.652.101 1.226.294 1.727.194.498.466.917.818 1.255.35.34.76.596 1.233.77.472.172.988.26 1.55.26.322-.001.617-.02.887-.054.27-.037.509-.084.712-.14.203-.058.365-.116.488-.181l-.2-.821Zm2.99 1.067h1.033V1.272h2.417V.403h-5.854v.869h2.405V8.31Zm7.52-8.047c-.53.002-1.018.1-1.462.295-.446.196-.83.475-1.16.839a3.863 3.863 0 0 0-.762 1.31 5.114 5.114 0 0 0-.276 1.71c.002.599.088 1.144.26 1.637.172.491.415.915.73 1.271.315.356.69.63 1.124.823.434.192.913.29 1.44.291a3.83 3.83 0 0 0 1.158-.174 3.337 3.337 0 0 0 1.803-1.354 4 4 0 0 0 .524-1.162c.123-.44.186-.932.187-1.474a5.037 5.037 0 0 0-.252-1.62 3.68 3.68 0 0 0-.717-1.27 3.173 3.173 0 0 0-1.124-.827 3.618 3.618 0 0 0-1.473-.295Zm-.035.833a2.194 2.194 0 0 1 1.623.679c.202.21.37.453.503.726.133.274.232.568.298.876.065.311.099.626.099.945 0 .452-.057.876-.169 1.271a3.36 3.36 0 0 1-.49 1.044 2.38 2.38 0 0 1-.796.71c-.315.17-.675.256-1.08.26a2.308 2.308 0 0 1-.885-.17 2.27 2.27 0 0 1-.706-.472 2.765 2.765 0 0 1-.516-.705 3.64 3.64 0 0 1-.319-.88 4.843 4.843 0 0 1-.006-1.993c.067-.322.169-.623.305-.9.136-.277.305-.52.509-.728.203-.207.442-.37.714-.486.271-.116.576-.175.916-.177Zm4.927 7.19c.17.024.389.046.655.065.266.018.577.028.929.03.645 0 1.193-.059 1.642-.18.452-.122.812-.307 1.08-.559a2.062 2.062 0 0 0 .68-1.584 2.025 2.025 0 0 0-.149-.778 1.865 1.865 0 0 0-.385-.58 2.275 2.275 0 0 0-1.097-.612v-.036c.276-.1.512-.236.712-.409a1.82 1.82 0 0 0 .461-.598 1.71 1.71 0 0 0 .164-.73 1.818 1.818 0 0 0-.18-.816 1.628 1.628 0 0 0-.488-.579 2.053 2.053 0 0 0-.545-.327 3.147 3.147 0 0 0-.706-.187 5.935 5.935 0 0 0-.908-.061 9.811 9.811 0 0 0-1.34.084 5.35 5.35 0 0 0-.525.092v7.766Zm1.02-7.084c.08-.02.192-.035.337-.05.144-.013.334-.02.567-.02.346-.003.649.042.905.13.259.088.46.227.602.419.143.189.216.435.217.74 0 .257-.068.485-.203.687a1.36 1.36 0 0 1-.582.473c-.252.117-.558.176-.915.178h-.927V1.202Zm0 3.32h.845c.282 0 .544.029.79.088.245.058.461.15.65.273.187.123.334.282.44.475.105.192.16.422.161.688a1.5 1.5 0 0 1-.168.725 1.29 1.29 0 0 1-.45.476 2.04 2.04 0 0 1-.648.258c-.243.053-.497.08-.763.078-.181 0-.344-.004-.485-.01a3.46 3.46 0 0 1-.371-.037V4.521Zm10.652 2.72a2.852 2.852 0 0 1-.476.175 4.634 4.634 0 0 1-1.2.154c-.64-.003-1.186-.133-1.636-.39a2.556 2.556 0 0 1-1.032-1.1c-.238-.473-.358-1.036-.36-1.689a4.13 4.13 0 0 1 .221-1.386c.147-.403.356-.745.626-1.023.271-.28.596-.49.974-.635a3.509 3.509 0 0 1 1.265-.217c.33.002.63.033.897.094.268.06.497.139.686.234l.258-.833c-.09-.049-.22-.1-.391-.154-.17-.053-.379-.1-.625-.137a5.878 5.878 0 0 0-.86-.06 4.619 4.619 0 0 0-1.68.299c-.505.198-.939.48-1.305.845a3.76 3.76 0 0 0-.844 1.31 4.676 4.676 0 0 0-.301 1.698c.004.652.102 1.226.295 1.727.194.498.465.917.818 1.255.35.34.76.596 1.233.77.472.172.987.26 1.549.26.322-.001.617-.02.888-.054a5.56 5.56 0 0 0 .711-.14 2.59 2.59 0 0 0 .489-.181l-.2-.821ZM74.35.404V8.31h1.02V4.685h.33c.331 0 .617.044.855.128.237.086.44.205.607.361.165.155.306.34.422.556.117.215.22.453.309.715l.223.64c.074.219.152.431.234.641.082.207.172.403.27.584h1.091a10.786 10.786 0 0 1-.31-.713 27.986 27.986 0 0 1-.273-.743c-.09-.254-.185-.514-.285-.784a5.658 5.658 0 0 0-.33-.745 2.714 2.714 0 0 0-.436-.61 2.123 2.123 0 0 0-.607-.444 2.725 2.725 0 0 0-.844-.242l2.99-3.626h-1.22l-2.71 3.508h-.317V.403h-1.02Zm6.358 0V8.31h1.09l2.476-3.941c.274-.436.536-.878.79-1.326.254-.447.481-.889.676-1.326l.035.013c-.026.33-.046.66-.06.99-.014.333-.021.68-.027 1.042-.004.364-.006.757-.006 1.181V8.31h.962V.403h-1.02l-2.558 4.071c-.287.468-.553.919-.798 1.353a20.58 20.58 0 0 0-.657 1.263l-.035-.011a52.952 52.952 0 0 0 .094-3.343V.403h-.962ZM92.509 3.76h-3.062v-2.5h3.25V.403h-4.283V8.31h4.458v-.856h-3.425v-2.85h3.062v-.845ZM158.84.403V8.31h1.032V4.604h3.825V8.31h1.032V.403h-1.032v3.309h-3.825V.403h-1.032Zm10.851-.14a3.62 3.62 0 0 0-1.463.295 3.369 3.369 0 0 0-1.159.839 3.855 3.855 0 0 0-.763 1.31 5.106 5.106 0 0 0-.275 1.71c.002.599.088 1.144.26 1.637.172.491.414.915.729 1.271.315.356.69.63 1.124.823.434.192.913.29 1.441.291.405 0 .792-.058 1.158-.174a3.349 3.349 0 0 0 1.802-1.355c.225-.334.402-.72.524-1.161.123-.44.186-.932.188-1.474a5.064 5.064 0 0 0-.252-1.62 3.68 3.68 0 0 0-.718-1.27 3.168 3.168 0 0 0-1.124-.827 3.613 3.613 0 0 0-1.472-.295Zm-.036.833a2.2 2.2 0 0 1 1.624.679c.201.21.369.453.502.726.133.274.233.568.299.876.064.311.098.626.098.945 0 .452-.057.876-.168 1.271a3.354 3.354 0 0 1-.491 1.044 2.378 2.378 0 0 1-.796.71 2.28 2.28 0 0 1-1.079.26 2.3 2.3 0 0 1-.885-.17 2.26 2.26 0 0 1-.706-.472 2.755 2.755 0 0 1-.517-.705 3.627 3.627 0 0 1-.318-.88 4.81 4.81 0 0 1-.006-1.993 3.74 3.74 0 0 1 .304-.9c.136-.277.306-.52.509-.728.203-.207.442-.37.714-.486.272-.116.576-.175.916-.177Zm4.294-.693 2.792 3.638a2.472 2.472 0 0 0-.796.224 1.975 1.975 0 0 0-.578.43 2.866 2.866 0 0 0-.423.614 6 6 0 0 0-.326.773c-.084.246-.166.494-.246.745-.079.25-.163.498-.251.747a8.68 8.68 0 0 1-.301.736h1.044c.086-.177.164-.375.239-.59.072-.215.143-.43.209-.65.066-.218.131-.424.197-.613a6.52 6.52 0 0 1 .297-.733c.108-.218.235-.403.384-.557.148-.155.332-.274.551-.357a2.29 2.29 0 0 1 .798-.124h.364V8.31h.985V4.685h.352c.315 0 .58.044.799.125.217.083.401.202.55.357.149.154.275.34.383.557.105.219.206.461.297.733.063.19.126.395.192.614.064.219.134.434.207.649.074.215.157.413.246.59h1.044a8.904 8.904 0 0 1-.289-.736 23.42 23.42 0 0 1-.242-.751 25.785 25.785 0 0 0-.243-.753 5.798 5.798 0 0 0-.328-.777 2.807 2.807 0 0 0-.429-.617 1.965 1.965 0 0 0-.586-.429 2.388 2.388 0 0 0-.803-.206l2.803-3.638h-1.184l-2.452 3.508h-.317V.403h-.985v3.508h-.318L175.134.403h-1.185Zm10.03 0V8.31h1.091l2.475-3.941c.274-.436.536-.878.79-1.326.254-.447.481-.889.676-1.326l.035.013c-.027.33-.046.66-.06.99-.014.333-.021.68-.027 1.042-.004.364-.007.757-.007 1.181V8.31h.963V.403h-1.021l-2.557 4.071a41 41 0 0 0-.798 1.353 20.58 20.58 0 0 0-.657 1.263l-.035-.011c.023-.35.041-.704.055-1.06.013-.356.023-.722.031-1.099.006-.377.008-.772.008-1.184V.403h-.962Z" fill="#1F1C21"/></svg>