<svg width="190" height="25" fill="none" xmlns="http://www.w3.org/2000/svg"><path d="M1.522.343v9.66h.445c.034-.554.12-1.114.262-1.673a10.22 10.22 0 0 1 .537-1.627c.217-.514.468-.982.753-1.405.28-.416.588-.753.914-1.016.24-.2.548-.388.93-.57.383-.184.84-.332 1.371-.446.537-.12 1.148-.177 1.844-.183h7.262L.562 24.116l.069.206h22.095v-11.1h-.445a22.411 22.411 0 0 1-.189 1.914 15.474 15.474 0 0 1-.4 1.884 9.22 9.22 0 0 1-.673 1.701 5.33 5.33 0 0 1-1 1.353c-.496.463-1.021.8-1.57 1.017a6.283 6.283 0 0 1-1.655.41c-.548.063-1.073.086-1.57.08H7.687L22.897.548l-.17-.205H1.521Zm28.09 20.142c.005.28-.006.565-.04.862a3.044 3.044 0 0 1-.229.88 2.25 2.25 0 0 1-.588.793 2.711 2.711 0 0 1-.868.486c-.32.114-.65.194-.993.24a13.51 13.51 0 0 1-.982.097l-.582.034v.445h24.047V13.908h-.445l-.102 1.062a19.67 19.67 0 0 1-.235 1.696 7.09 7.09 0 0 1-.525 1.644c-.24.537-.594 1.028-1.056 1.49a4.882 4.882 0 0 1-.628.525c-.275.2-.622.395-1.05.583a7.46 7.46 0 0 1-1.542.48c-.6.125-1.296.188-2.09.193h-7.845V4.18c-.005-.2.006-.45.04-.748a3.64 3.64 0 0 1 .229-.925c.126-.32.32-.604.588-.862a2.42 2.42 0 0 1 .856-.485 5.174 5.174 0 0 1 1.017-.24 13.2 13.2 0 0 1 .97-.097l.583-.034V.343H25.33v.445l.582.034c.303.017.628.052.977.097.342.046.679.126 1.01.24.325.108.611.268.856.485.268.258.468.543.588.863.12.32.2.628.229.924.034.297.045.548.04.748v16.306ZM62.017 0 54.55 18.019c-.251.588-.48 1.09-.685 1.501a25.63 25.63 0 0 1-.537 1.028c-.154.268-.285.486-.388.657a7.735 7.735 0 0 1-.45.656 5.5 5.5 0 0 1-.72.77 4.725 4.725 0 0 1-1.034.698 4.82 4.82 0 0 1-1.393.445l-.65.103v.445H60.99v-.445l-.856-.069a6.594 6.594 0 0 1-1.08-.171 4.329 4.329 0 0 1-1.084-.423 2.542 2.542 0 0 1-.85-.742 2.386 2.386 0 0 1-.383-.913 3.746 3.746 0 0 1-.057-1.08c.028-.364.108-.707.234-1.021l1.302-3.186h8.77l1.54 3.768c.092.211.166.44.235.69.068.258.102.503.108.749-.006.508-.103.913-.297 1.21a1.798 1.798 0 0 1-.73.674 2.212 2.212 0 0 1-.56.222c-.217.057-.48.11-.8.149-.319.04-.713.074-1.175.108l-.514.035v.445H78.22v-.445l-.548-.034a5.405 5.405 0 0 1-1.199-.206 5.612 5.612 0 0 1-1.085-.423 3.686 3.686 0 0 1-.833-.57 3.71 3.71 0 0 1-.577-.783 13.16 13.16 0 0 1-.628-1.29c-.228-.53-.514-1.21-.85-2.038L64.93 0h-2.912Zm4.111 13.874h-7.057l3.494-8.427h.069l3.494 8.427ZM88.567 3.083h2.535c.2-.006.451.006.754.029.302.023.627.068.981.148.355.074.708.194 1.062.354.36.166.691.388 1.005.668.286.263.543.611.777 1.05.228.44.434.926.605 1.457.177.536.32 1.079.428 1.627.108.548.177 1.067.211 1.553h.446V.343H75.515v9.626h.446c.034-.486.108-1.005.217-1.553.102-.548.245-1.09.422-1.627a8.968 8.968 0 0 1 .61-1.456c.23-.44.486-.788.772-1.051.314-.28.645-.502 1.004-.668.355-.16.709-.28 1.063-.354.353-.08.68-.125.982-.148a7.48 7.48 0 0 1 .753-.029h2.535v17.402c.006.2-.005.451-.04.748a3.634 3.634 0 0 1-.228.925c-.12.314-.32.605-.588.862a2.547 2.547 0 0 1-.857.486 5.633 5.633 0 0 1-1.01.24c-.349.045-.674.073-.977.097l-.582.034v.445h12.812v-.445l-.583-.034a17.101 17.101 0 0 1-.97-.098 5.571 5.571 0 0 1-1.016-.24 2.541 2.541 0 0 1-.857-.485 2.456 2.456 0 0 1-.588-.862 3.62 3.62 0 0 1-.228-.925 5.379 5.379 0 0 1-.04-.748V3.083ZM132.21.343h-10.277l-6.406 16.272h-.103L109.018.343H98.33v.445l.583.034c.302.017.627.052.976.097.342.046.679.126 1.01.24.326.108.611.268.857.485.268.258.468.543.588.863.119.32.199.628.228.924.034.297.046.548.04.748V19.8c.006.263-.011.582-.045.96a5.246 5.246 0 0 1-.24 1.141c-.12.383-.314.708-.571.983a2.61 2.61 0 0 1-.845.53c-.337.137-.686.24-1.04.308a6.67 6.67 0 0 1-.958.12l-.583.035v.445h11.544v-.445l-.582-.034a6.67 6.67 0 0 1-.959-.12 5.566 5.566 0 0 1-1.039-.309 2.6 2.6 0 0 1-.845-.53 2.24 2.24 0 0 1-.48-.743 4 4 0 0 1-.257-.88 8.124 8.124 0 0 1-.102-.833 14.324 14.324 0 0 1-.018-.628V3.666h.103l8.153 20.656h1.576l8.153-20.656h.103v16.82c.005.2-.006.45-.04.747a3.424 3.424 0 0 1-.229.925 2.37 2.37 0 0 1-.588.862 2.543 2.543 0 0 1-.856.486 5.62 5.62 0 0 1-1.011.24c-.348.045-.673.073-.976.097l-.582.034v.445h12.812v-.445l-.583-.034a17.233 17.233 0 0 1-.971-.098 5.415 5.415 0 0 1-1.01-.24 2.506 2.506 0 0 1-.862-.485 2.447 2.447 0 0 1-.588-.862c-.12-.32-.2-.628-.229-.925a6.42 6.42 0 0 1-.039-.748V4.18c-.006-.2.011-.45.039-.748.029-.296.109-.605.229-.925.126-.32.319-.604.588-.862.245-.217.531-.377.862-.485a5.027 5.027 0 0 1 1.01-.24c.343-.045.669-.08.971-.097l.583-.034V.343ZM144.781 0l-7.467 18.019c-.251.588-.48 1.09-.685 1.501a25.63 25.63 0 0 1-.537 1.028c-.154.268-.286.486-.388.657a7.895 7.895 0 0 1-.451.656 5.495 5.495 0 0 1-.72.77 4.722 4.722 0 0 1-1.033.698 4.82 4.82 0 0 1-1.393.445l-.651.103v.445h12.298v-.445l-.857-.069a6.611 6.611 0 0 1-1.079-.171 4.339 4.339 0 0 1-1.085-.423 2.548 2.548 0 0 1-.85-.742 2.385 2.385 0 0 1-.382-.913 3.76 3.76 0 0 1-.058-1.08c.029-.364.109-.707.235-1.021l1.301-3.186h8.77l1.541 3.768c.092.211.166.44.234.69.069.258.103.503.109.749-.006.508-.103.913-.297 1.21a1.794 1.794 0 0 1-.731.674 2.194 2.194 0 0 1-.559.222c-.217.057-.48.11-.8.149-.319.04-.713.074-1.176.108l-.514.035v.445h13.429v-.445l-.548-.034a5.391 5.391 0 0 1-1.199-.206 5.61 5.61 0 0 1-1.085-.423 3.695 3.695 0 0 1-.834-.57 3.752 3.752 0 0 1-.576-.783 13.05 13.05 0 0 1-.628-1.29c-.229-.53-.514-1.21-.851-2.038L147.694 0h-2.913Zm4.112 13.874h-7.057l3.494-8.427h.068l3.495 8.427ZM159.752.343v.445l.651.137c.416.097.845.28 1.284.542.44.263.862.565 1.267.914.406.348.766.696 1.08 1.045l7.913 8.804-6.68 7.776a7.06 7.06 0 0 1-.485.52 25.651 25.651 0 0 1-1.37 1.261c-.217.189-.4.337-.543.445a9.464 9.464 0 0 1-1.747 1.017c-.622.28-1.239.49-1.85.628v.445h13.463v-.445l-.822-.069c-.645-.057-1.142-.131-1.496-.217a13.1 13.1 0 0 1-.697-.194 2.945 2.945 0 0 1-.69-.36 1.737 1.737 0 0 1-.537-.576c-.137-.234-.206-.526-.211-.88a2.1 2.1 0 0 1 .217-.844 5.15 5.15 0 0 1 .468-.822c.177-.252.325-.452.445-.595l4.351-5.07 4.693 5.173c.245.263.474.537.691.817.216.285.399.57.536.868.137.29.206.588.211.885-.005.336-.097.616-.279.839a1.976 1.976 0 0 1-.714.53 4.174 4.174 0 0 1-1.084.344 8.92 8.92 0 0 1-1.211.137l-.993.034v.445H190v-.445a6.187 6.187 0 0 1-2.638-.993 11.427 11.427 0 0 1-1.804-1.57 60.977 60.977 0 0 1-1.827-2.028l-7.297-8.153 4.625-5.343c.331-.383.68-.789 1.045-1.223.371-.434.765-.856 1.187-1.267a9.22 9.22 0 0 1 1.365-1.108 9.168 9.168 0 0 1 1.005-.559 9.555 9.555 0 0 1 1.164-.457 7.06 7.06 0 0 1 1.188-.285l.685-.103V.343h-13.771v.445l.856.069c.629.05 1.143.142 1.542.268.4.126.708.28.925.45.252.19.434.395.537.623.103.234.154.491.149.782a2.878 2.878 0 0 1-.149.92 3.046 3.046 0 0 1-.343.708 4.963 4.963 0 0 1-.399.53l-3.426 4.009-4.864-5.413c-.183-.206-.314-.388-.383-.548a1.034 1.034 0 0 1-.097-.445c-.006-.263.057-.52.2-.771.137-.252.388-.474.759-.668a3.86 3.86 0 0 1 .622-.217c.24-.063.486-.114.731-.154a8.44 8.44 0 0 1 .668-.074l.788-.069V.343h-13.291Z" fill="#1F1C21"/></svg>