<svg width="22" height="14" fill="none" xmlns="http://www.w3.org/2000/svg"><path d="M21.368 7.38v-.017c0-.045-.005-.091-.005-.143-.031-1.134-.099-3.786-2.357-4.634-.015-.006-.036-.012-.052-.017-2.346-.66-4.297-2.148-4.318-2.166-.317-.246-.754-.16-.978.19-.224.349-.146.83.172 1.076.088.07 2.159 1.656 4.75 2.39 1.212.475 1.347 1.9 1.384 3.207 0 .052 0 .097.005.143.005.516-.026 1.312-.11 1.77-.842.527-4.146 2.349-9.172 2.349-5.004 0-8.329-1.827-9.177-2.354-.083-.459-.12-1.255-.11-1.77 0-.046.006-.092.006-.144.037-1.306.172-2.732 1.384-3.208 2.59-.733 4.661-2.325 4.75-2.388A.825.825 0 0 0 7.712.587c-.224-.35-.661-.436-.979-.19-.02.018-1.96 1.507-4.318 2.166a.611.611 0 0 0-.052.017C.105 3.434.038 6.086.007 7.214c0 .052 0 .098-.006.144v.017c-.005.298-.01 1.827.266 2.595a.723.723 0 0 0 .27.36c.156.115 3.897 2.739 10.156 2.739 6.258 0 9.999-2.63 10.155-2.738a.755.755 0 0 0 .27-.361c.26-.762.255-2.292.25-2.59Z" fill="#fff"/></svg>