<svg width="60" height="12" fill="none" xmlns="http://www.w3.org/2000/svg"><path fill-rule="evenodd" clip-rule="evenodd" d="M.917 7.354s1.127-.546 3.102-1.28c1.018.486 3.248 1.5 5.408 2.124 2.924.844 4.872.714 7.6.714 2.729 0 6.627-.454 6.627-.454s-.585-2.144-.65-3.703c-.065-1.559-.065-1.819-.065-1.819s-.585 2.21-.455 3.378c.13 1.17.13 1.56.13 1.56s-5.132.52-8.77.13c-3.637-.39-5.846-.78-7.405-1.3a62.73 62.73 0 0 0-2.241-.697 63.044 63.044 0 0 1 12.245-3.135c9.094-1.365 7.275-.91 7.275-.91s.195-.39 1.364-.52c1.17-.13 13.122-.714 16.825-.454 3.703.26 13.901.78 15.395 1.754 1.494.974 2.079 1.948 1.624 4.352-.454 2.403-1.364 4.742-2.208 4.222-.845-.52-3.703-2.728-6.431-3.118-2.728-.39-5.717-.325-6.95 0-1.235.325-3.314 1.624-4.288 1.3-.975-.325-2.923-2.144-4.482-1.495-1.56.65-1.624.845-2.34 1.754-.713.91-1.688 1.95-2.467.975-.78-.975-2.21-1.43-3.444-1.495-1.233-.064-2.338.325-2.662.65-.326.325-.78.974-.78.974s-2.014-.519-4.353-.26c-2.338.26-6.365.455-9.094-.064C6.7 10.017.917 7.354.917 7.354Zm24.555.78s2.599-.456 3.573.259c.975.714 1.17 1.3 2.923-.13 1.754-1.43 2.858-2.469 4.807-1.43 1.949 1.04 2.859 1.69 4.742.715 1.884-.974 5.977-2.013 9.42-.584 3.442 1.429 6.106 3.702 6.625 2.273.52-1.429.78-2.988-1.883-3.572-2.664-.585-6.626-1.235-10.264-.65-3.638.585-4.287 2.273-5.781 1.819-1.495-.455-3.118-1.819-4.937-1.105-1.82.715-3.378 2.924-4.872 2.21-1.494-.715-2.534-1.365-3.443-.91-.91.454-.91 1.104-.91 1.104Z" fill="#1F1C21"/></svg>