<svg width="12" height="16" fill="none" xmlns="http://www.w3.org/2000/svg"><path d="M5.594 15.312h.167c1.524-.029 2.757-.619 3.667-1.747 2.003-2.487 1.67-6.748 1.634-7.155-.13-3.053-1.441-4.514-2.523-5.196C7.732.704 6.79.43 5.739.406h-.088c-.577 0-1.711.104-2.799.785C1.76 1.873.428 3.334.298 6.41c-.036.407-.37 4.668 1.634 7.155.905 1.128 2.138 1.718 3.662 1.747ZM1.687 6.553c0-.017.005-.034.005-.046C1.864 2.4 4.512 1.96 5.646 1.96h.063c1.404.034 3.792.664 3.953 4.548 0 .017 0 .035.006.046.005.04.369 3.935-1.285 5.986-.656.814-1.53 1.215-2.68 1.226h-.052c-1.144-.011-2.023-.412-2.674-1.226-1.649-2.04-1.295-5.952-1.29-5.986Z" fill="#fff"/></svg>